<mxfile host="app.diagrams.net" modified="2021-02-10T13:53:22.937Z" agent="5.0 (Windows NT 10.0; WOW64) AppleWebKit/537.36 (KHTML, like Gecko) Chrome/86.0.4240.198 Safari/537.36" etag="dH4PS6-Vss69yNDH6zcN" version="14.2.9" type="github" pages="4">
  <diagram id="bRnhacsopjf_rvwvoULq" name="Page-1">
    <mxGraphModel dx="942" dy="620" grid="0" gridSize="10" guides="1" tooltips="1" connect="1" arrows="1" fold="1" page="1" pageScale="1" pageWidth="827" pageHeight="1169" math="0" shadow="0">
      <root>
        <mxCell id="0" />
        <mxCell id="1" parent="0" />
        <mxCell id="ULwXWasQocaKYSupaL_9-6" value="" style="edgeStyle=orthogonalEdgeStyle;rounded=0;orthogonalLoop=1;jettySize=auto;html=1;" parent="1" source="ULwXWasQocaKYSupaL_9-1" target="ULwXWasQocaKYSupaL_9-2" edge="1">
          <mxGeometry relative="1" as="geometry" />
        </mxCell>
        <mxCell id="ULwXWasQocaKYSupaL_9-1" value="&lt;font style=&quot;vertical-align: inherit&quot;&gt;&lt;font style=&quot;vertical-align: inherit&quot;&gt;用户请求&lt;/font&gt;&lt;/font&gt;" style="rounded=0;whiteSpace=wrap;html=1;" parent="1" vertex="1">
          <mxGeometry x="294" y="80" width="120" height="60" as="geometry" />
        </mxCell>
        <mxCell id="ULwXWasQocaKYSupaL_9-16" value="" style="edgeStyle=orthogonalEdgeStyle;rounded=0;orthogonalLoop=1;jettySize=auto;html=1;" parent="1" source="ULwXWasQocaKYSupaL_9-2" target="ULwXWasQocaKYSupaL_9-3" edge="1">
          <mxGeometry relative="1" as="geometry" />
        </mxCell>
        <mxCell id="ULwXWasQocaKYSupaL_9-2" value="&lt;font style=&quot;vertical-align: inherit&quot;&gt;&lt;font style=&quot;vertical-align: inherit&quot;&gt;Controller&lt;/font&gt;&lt;/font&gt;" style="rounded=0;whiteSpace=wrap;html=1;" parent="1" vertex="1">
          <mxGeometry x="294" y="210" width="120" height="60" as="geometry" />
        </mxCell>
        <mxCell id="ULwXWasQocaKYSupaL_9-14" value="" style="edgeStyle=orthogonalEdgeStyle;rounded=0;orthogonalLoop=1;jettySize=auto;html=1;" parent="1" source="ULwXWasQocaKYSupaL_9-3" target="ULwXWasQocaKYSupaL_9-4" edge="1">
          <mxGeometry relative="1" as="geometry" />
        </mxCell>
        <mxCell id="ULwXWasQocaKYSupaL_9-3" value="&lt;font style=&quot;vertical-align: inherit&quot;&gt;&lt;font style=&quot;vertical-align: inherit&quot;&gt;service&lt;/font&gt;&lt;/font&gt;" style="rounded=0;whiteSpace=wrap;html=1;" parent="1" vertex="1">
          <mxGeometry x="294" y="300" width="120" height="60" as="geometry" />
        </mxCell>
        <mxCell id="ULwXWasQocaKYSupaL_9-4" value="&lt;font style=&quot;vertical-align: inherit&quot;&gt;&lt;font style=&quot;vertical-align: inherit&quot;&gt;dao&lt;/font&gt;&lt;/font&gt;" style="rounded=0;whiteSpace=wrap;html=1;" parent="1" vertex="1">
          <mxGeometry x="294" y="389" width="120" height="60" as="geometry" />
        </mxCell>
        <mxCell id="ULwXWasQocaKYSupaL_9-18" value="调用" style="text;html=1;align=center;verticalAlign=middle;resizable=0;points=[];autosize=1;" parent="1" vertex="1">
          <mxGeometry x="357" y="276" width="34" height="18" as="geometry" />
        </mxCell>
        <mxCell id="ULwXWasQocaKYSupaL_9-19" value="调用" style="text;html=1;align=center;verticalAlign=middle;resizable=0;points=[];autosize=1;" parent="1" vertex="1">
          <mxGeometry x="357" y="366" width="34" height="18" as="geometry" />
        </mxCell>
      </root>
    </mxGraphModel>
  </diagram>
  <diagram id="_L657KMYjw1coyH6Br2d" name="第 2 页">
    <mxGraphModel dx="942" dy="620" grid="1" gridSize="10" guides="1" tooltips="1" connect="1" arrows="1" fold="1" page="1" pageScale="1" pageWidth="827" pageHeight="1169" math="0" shadow="0">
      <root>
        <mxCell id="7wFeGYWn71SrVm_FA93i-0" />
        <mxCell id="7wFeGYWn71SrVm_FA93i-1" parent="7wFeGYWn71SrVm_FA93i-0" />
        <mxCell id="7wFeGYWn71SrVm_FA93i-10" value="计算机（学习研究及项目实践）" style="whiteSpace=wrap;html=1;rounded=1;arcSize=50;align=center;verticalAlign=middle;strokeWidth=1;autosize=1;spacing=4;treeFolding=1;treeMoving=1;newEdgeStyle={&quot;edgeStyle&quot;:&quot;entityRelationEdgeStyle&quot;,&quot;startArrow&quot;:&quot;none&quot;,&quot;endArrow&quot;:&quot;none&quot;,&quot;segment&quot;:10,&quot;curved&quot;:1};" parent="7wFeGYWn71SrVm_FA93i-1" vertex="1">
          <mxGeometry x="204" y="140" width="210" height="30" as="geometry" />
        </mxCell>
        <mxCell id="7wFeGYWn71SrVm_FA93i-11" value="" style="edgeStyle=entityRelationEdgeStyle;startArrow=none;endArrow=none;segment=10;curved=1;exitX=1;exitY=0.5;exitDx=0;exitDy=0;" parent="7wFeGYWn71SrVm_FA93i-1" source="7wFeGYWn71SrVm_FA93i-13" target="7wFeGYWn71SrVm_FA93i-10" edge="1">
          <mxGeometry relative="1" as="geometry">
            <mxPoint x="288" y="200" as="sourcePoint" />
          </mxGeometry>
        </mxCell>
        <mxCell id="7wFeGYWn71SrVm_FA93i-13" value="2021知识体系" style="rounded=1;whiteSpace=wrap;html=1;" parent="7wFeGYWn71SrVm_FA93i-1" vertex="1">
          <mxGeometry x="50" y="200" width="120" height="60" as="geometry" />
        </mxCell>
        <mxCell id="7wFeGYWn71SrVm_FA93i-18" value="Sub Topic" style="whiteSpace=wrap;html=1;rounded=1;arcSize=50;align=center;verticalAlign=middle;strokeWidth=1;autosize=1;spacing=4;treeFolding=1;treeMoving=1;newEdgeStyle={&quot;edgeStyle&quot;:&quot;entityRelationEdgeStyle&quot;,&quot;startArrow&quot;:&quot;none&quot;,&quot;endArrow&quot;:&quot;none&quot;,&quot;segment&quot;:10,&quot;curved&quot;:1};" parent="7wFeGYWn71SrVm_FA93i-1" vertex="1">
          <mxGeometry x="240" y="270" width="72" height="26" as="geometry" />
        </mxCell>
        <mxCell id="7wFeGYWn71SrVm_FA93i-19" value="" style="edgeStyle=entityRelationEdgeStyle;startArrow=none;endArrow=none;segment=10;curved=1;" parent="7wFeGYWn71SrVm_FA93i-1" source="7wFeGYWn71SrVm_FA93i-13" target="7wFeGYWn71SrVm_FA93i-18" edge="1">
          <mxGeometry relative="1" as="geometry">
            <mxPoint x="190.00000000000006" y="270" as="sourcePoint" />
          </mxGeometry>
        </mxCell>
        <mxCell id="7wFeGYWn71SrVm_FA93i-20" value="数学梳理及运用" style="whiteSpace=wrap;html=1;rounded=1;arcSize=50;align=center;verticalAlign=middle;strokeWidth=1;autosize=1;spacing=4;treeFolding=1;treeMoving=1;newEdgeStyle={&quot;edgeStyle&quot;:&quot;entityRelationEdgeStyle&quot;,&quot;startArrow&quot;:&quot;none&quot;,&quot;endArrow&quot;:&quot;none&quot;,&quot;segment&quot;:10,&quot;curved&quot;:1};" parent="7wFeGYWn71SrVm_FA93i-1" vertex="1">
          <mxGeometry x="249" y="210" width="120" height="30" as="geometry" />
        </mxCell>
        <mxCell id="7wFeGYWn71SrVm_FA93i-21" value="" style="edgeStyle=entityRelationEdgeStyle;startArrow=none;endArrow=none;segment=10;curved=1;entryX=0;entryY=0.5;entryDx=0;entryDy=0;" parent="7wFeGYWn71SrVm_FA93i-1" source="7wFeGYWn71SrVm_FA93i-13" target="7wFeGYWn71SrVm_FA93i-20" edge="1">
          <mxGeometry relative="1" as="geometry">
            <mxPoint x="170" y="230" as="sourcePoint" />
            <mxPoint x="240" y="230" as="targetPoint" />
          </mxGeometry>
        </mxCell>
      </root>
    </mxGraphModel>
  </diagram>
  <diagram id="m_KuDJyAvtUNLu-u34v_" name="第 3 页">
    <mxGraphModel dx="1108" dy="729" grid="0" gridSize="10" guides="1" tooltips="1" connect="1" arrows="1" fold="1" page="1" pageScale="1" pageWidth="827" pageHeight="1169" background="#ffffff" math="0" shadow="1">
      <root>
        <mxCell id="fFzKiL66EHyeT-cZ4foM-0" />
        <mxCell id="fFzKiL66EHyeT-cZ4foM-1" parent="fFzKiL66EHyeT-cZ4foM-0" />
        <mxCell id="fFzKiL66EHyeT-cZ4foM-2" value="生" style="strokeWidth=2;html=1;shape=mxgraph.flowchart.start_1;whiteSpace=wrap;fontStyle=1;fontSize=30;" parent="fFzKiL66EHyeT-cZ4foM-1" vertex="1">
          <mxGeometry x="30" y="340" width="120" height="60" as="geometry" />
        </mxCell>
        <mxCell id="fFzKiL66EHyeT-cZ4foM-3" value="" style="endArrow=classic;html=1;entryX=0.22;entryY=0.5;entryDx=0;entryDy=0;entryPerimeter=0;" parent="fFzKiL66EHyeT-cZ4foM-1" target="fFzKiL66EHyeT-cZ4foM-7" edge="1">
          <mxGeometry relative="1" as="geometry">
            <mxPoint x="150" y="370" as="sourcePoint" />
            <mxPoint x="680" y="370" as="targetPoint" />
          </mxGeometry>
        </mxCell>
        <mxCell id="fFzKiL66EHyeT-cZ4foM-4" value="&lt;span style=&quot;font-size: 12px ; background-color: rgb(248 , 249 , 250)&quot;&gt;成长过程,长寿秘决,安身立命,死亡之旅,脆弱的一生&lt;/span&gt;" style="edgeLabel;resizable=0;html=1;align=center;verticalAlign=middle;" parent="fFzKiL66EHyeT-cZ4foM-3" connectable="0" vertex="1">
          <mxGeometry relative="1" as="geometry" />
        </mxCell>
        <mxCell id="fFzKiL66EHyeT-cZ4foM-18" value="自然死" style="edgeLabel;html=1;align=center;verticalAlign=middle;resizable=0;points=[];fontSize=12;" parent="fFzKiL66EHyeT-cZ4foM-3" vertex="1" connectable="0">
          <mxGeometry x="0.8643" relative="1" as="geometry">
            <mxPoint as="offset" />
          </mxGeometry>
        </mxCell>
        <mxCell id="fFzKiL66EHyeT-cZ4foM-7" value="死" style="strokeWidth=2;html=1;shape=mxgraph.flowchart.extract_or_measurement;whiteSpace=wrap;fontStyle=1;fontSize=30;" parent="fFzKiL66EHyeT-cZ4foM-1" vertex="1">
          <mxGeometry x="673" y="340" width="147" height="60" as="geometry" />
        </mxCell>
        <mxCell id="fFzKiL66EHyeT-cZ4foM-8" value="" style="edgeStyle=elbowEdgeStyle;elbow=horizontal;endArrow=classic;html=1;fontSize=30;dashed=1;entryX=0;entryY=0.5;entryDx=0;entryDy=0;entryPerimeter=0;" parent="fFzKiL66EHyeT-cZ4foM-1" target="fFzKiL66EHyeT-cZ4foM-10" edge="1">
          <mxGeometry width="50" height="50" relative="1" as="geometry">
            <mxPoint x="610" y="370" as="sourcePoint" />
            <mxPoint x="660" y="280" as="targetPoint" />
          </mxGeometry>
        </mxCell>
        <mxCell id="fFzKiL66EHyeT-cZ4foM-12" value="" style="edgeStyle=orthogonalEdgeStyle;rounded=0;orthogonalLoop=1;jettySize=auto;html=1;dashed=1;fontSize=30;" parent="fFzKiL66EHyeT-cZ4foM-1" source="fFzKiL66EHyeT-cZ4foM-10" target="fFzKiL66EHyeT-cZ4foM-11" edge="1">
          <mxGeometry relative="1" as="geometry" />
        </mxCell>
        <mxCell id="fFzKiL66EHyeT-cZ4foM-10" value="长寿" style="strokeWidth=2;html=1;shape=mxgraph.flowchart.delay;whiteSpace=wrap;fontSize=12;" parent="fFzKiL66EHyeT-cZ4foM-1" vertex="1">
          <mxGeometry x="670" y="265" width="60" height="30" as="geometry" />
        </mxCell>
        <mxCell id="fFzKiL66EHyeT-cZ4foM-11" value="长生" style="shape=cylinder;whiteSpace=wrap;html=1;boundedLbl=1;backgroundOutline=1;fontSize=12;strokeWidth=2;" parent="fFzKiL66EHyeT-cZ4foM-1" vertex="1">
          <mxGeometry x="762" y="240" width="60" height="80" as="geometry" />
        </mxCell>
        <mxCell id="fFzKiL66EHyeT-cZ4foM-14" value="&lt;div&gt;&lt;span&gt;精神长生&lt;/span&gt;&lt;/div&gt;" style="shape=cylinder;whiteSpace=wrap;html=1;boundedLbl=1;backgroundOutline=1;fontSize=12;strokeWidth=2;" parent="fFzKiL66EHyeT-cZ4foM-1" vertex="1">
          <mxGeometry x="760" y="140" width="60" height="80" as="geometry" />
        </mxCell>
        <mxCell id="fFzKiL66EHyeT-cZ4foM-15" value="" style="edgeStyle=elbowEdgeStyle;elbow=horizontal;endArrow=classic;html=1;fontSize=30;dashed=1;entryX=0;entryY=0.5;entryDx=0;entryDy=0;" parent="fFzKiL66EHyeT-cZ4foM-1" target="fFzKiL66EHyeT-cZ4foM-14" edge="1">
          <mxGeometry width="50" height="50" relative="1" as="geometry">
            <mxPoint x="610" y="370" as="sourcePoint" />
            <mxPoint x="670" y="280" as="targetPoint" />
            <Array as="points">
              <mxPoint x="640" y="280" />
              <mxPoint x="650" y="180" />
            </Array>
          </mxGeometry>
        </mxCell>
        <mxCell id="fFzKiL66EHyeT-cZ4foM-17" value="&lt;div&gt;&lt;span&gt;种族长生&lt;/span&gt;&lt;/div&gt;" style="shape=cylinder;whiteSpace=wrap;html=1;boundedLbl=1;backgroundOutline=1;fontSize=12;strokeWidth=2;" parent="fFzKiL66EHyeT-cZ4foM-1" vertex="1">
          <mxGeometry x="760" y="40" width="60" height="80" as="geometry" />
        </mxCell>
        <mxCell id="fFzKiL66EHyeT-cZ4foM-21" value="&lt;div&gt;&lt;font style=&quot;font-size: 12px&quot;&gt;&lt;font color=&quot;#333333&quot; face=&quot;arial, sans-serif&quot;&gt;&lt;b&gt;溺死、烧死、电死、饿死：&lt;/b&gt;行为安全&lt;/font&gt;&lt;/font&gt;&lt;/div&gt;" style="whiteSpace=wrap;html=1;rounded=1;arcSize=50;align=left;verticalAlign=middle;strokeWidth=1;autosize=1;spacing=4;treeFolding=1;treeMoving=1;newEdgeStyle={&quot;edgeStyle&quot;:&quot;entityRelationEdgeStyle&quot;,&quot;startArrow&quot;:&quot;none&quot;,&quot;endArrow&quot;:&quot;none&quot;,&quot;segment&quot;:10,&quot;curved&quot;:1};fontSize=12;" parent="fFzKiL66EHyeT-cZ4foM-1" vertex="1" collapsed="1">
          <mxGeometry x="199" y="200" width="230" height="30" as="geometry" />
        </mxCell>
        <mxCell id="fFzKiL66EHyeT-cZ4foM-29" value="&lt;b&gt;病死:&lt;/b&gt;环境及食品水空气干净,气顺,煅炼,防受伤生病,疫苗" style="whiteSpace=wrap;html=1;rounded=1;arcSize=50;align=left;verticalAlign=middle;strokeWidth=1;autosize=1;spacing=4;treeFolding=1;treeMoving=1;newEdgeStyle={&quot;edgeStyle&quot;:&quot;entityRelationEdgeStyle&quot;,&quot;startArrow&quot;:&quot;none&quot;,&quot;endArrow&quot;:&quot;none&quot;,&quot;segment&quot;:10,&quot;curved&quot;:1};fontSize=12;" parent="fFzKiL66EHyeT-cZ4foM-1" vertex="1">
          <mxGeometry x="199" y="322" width="328" height="26" as="geometry" />
        </mxCell>
        <mxCell id="fFzKiL66EHyeT-cZ4foM-32" value="&lt;b&gt;环境杀、天灾杀：&lt;/b&gt;环境安全" style="whiteSpace=wrap;html=1;rounded=1;arcSize=50;align=left;verticalAlign=middle;strokeWidth=1;autosize=1;spacing=4;treeFolding=1;treeMoving=1;newEdgeStyle={&quot;edgeStyle&quot;:&quot;entityRelationEdgeStyle&quot;,&quot;startArrow&quot;:&quot;none&quot;,&quot;endArrow&quot;:&quot;none&quot;,&quot;segment&quot;:10,&quot;curved&quot;:1};fontSize=12;" parent="fFzKiL66EHyeT-cZ4foM-1" vertex="1">
          <mxGeometry x="198" y="160" width="180" height="30" as="geometry" />
        </mxCell>
        <mxCell id="fFzKiL66EHyeT-cZ4foM-36" value="" style="edgeStyle=elbowEdgeStyle;elbow=horizontal;endArrow=classic;html=1;fontSize=30;dashed=1;entryX=0;entryY=0.5;entryDx=0;entryDy=0;" parent="fFzKiL66EHyeT-cZ4foM-1" target="fFzKiL66EHyeT-cZ4foM-17" edge="1">
          <mxGeometry width="50" height="50" relative="1" as="geometry">
            <mxPoint x="610" y="370" as="sourcePoint" />
            <mxPoint x="760" y="180" as="targetPoint" />
            <Array as="points">
              <mxPoint x="640" y="220" />
              <mxPoint x="640" y="280" />
              <mxPoint x="650" y="180" />
            </Array>
          </mxGeometry>
        </mxCell>
        <mxCell id="fFzKiL66EHyeT-cZ4foM-37" value="&lt;b&gt;自杀、气死、作死：&lt;/b&gt;气顺" style="whiteSpace=wrap;html=1;rounded=1;arcSize=50;align=left;verticalAlign=middle;strokeWidth=1;autosize=1;spacing=4;treeFolding=1;treeMoving=1;newEdgeStyle={&quot;edgeStyle&quot;:&quot;entityRelationEdgeStyle&quot;,&quot;startArrow&quot;:&quot;none&quot;,&quot;endArrow&quot;:&quot;none&quot;,&quot;segment&quot;:10,&quot;curved&quot;:1};fontSize=12;" parent="fFzKiL66EHyeT-cZ4foM-1" vertex="1">
          <mxGeometry x="199" y="282" width="167" height="26" as="geometry" />
        </mxCell>
        <mxCell id="fFzKiL66EHyeT-cZ4foM-38" value="&lt;b&gt;他杀：&lt;/b&gt;人身安全，关系和谐，少得罪人" style="whiteSpace=wrap;html=1;rounded=1;arcSize=50;align=left;verticalAlign=middle;strokeWidth=1;autosize=1;spacing=4;treeFolding=1;treeMoving=1;newEdgeStyle={&quot;edgeStyle&quot;:&quot;entityRelationEdgeStyle&quot;,&quot;startArrow&quot;:&quot;none&quot;,&quot;endArrow&quot;:&quot;none&quot;,&quot;segment&quot;:10,&quot;curved&quot;:1};fontSize=12;" parent="fFzKiL66EHyeT-cZ4foM-1" vertex="1">
          <mxGeometry x="199" y="242" width="239" height="26" as="geometry" />
        </mxCell>
        <mxCell id="fFzKiL66EHyeT-cZ4foM-39" value="" style="edgeStyle=elbowEdgeStyle;elbow=horizontal;endArrow=classic;html=1;dashed=1;fontSize=12;entryX=0;entryY=0.5;entryDx=0;entryDy=0;" parent="fFzKiL66EHyeT-cZ4foM-1" target="fFzKiL66EHyeT-cZ4foM-29" edge="1">
          <mxGeometry width="50" height="50" relative="1" as="geometry">
            <mxPoint x="170" y="370" as="sourcePoint" />
            <mxPoint x="220" y="330" as="targetPoint" />
            <Array as="points">
              <mxPoint x="170" y="340" />
            </Array>
          </mxGeometry>
        </mxCell>
        <mxCell id="fFzKiL66EHyeT-cZ4foM-40" value="" style="edgeStyle=elbowEdgeStyle;elbow=horizontal;endArrow=classic;html=1;dashed=1;fontSize=12;entryX=0;entryY=0.5;entryDx=0;entryDy=0;" parent="fFzKiL66EHyeT-cZ4foM-1" target="fFzKiL66EHyeT-cZ4foM-37" edge="1">
          <mxGeometry width="50" height="50" relative="1" as="geometry">
            <mxPoint x="170" y="370" as="sourcePoint" />
            <mxPoint x="199" y="335" as="targetPoint" />
            <Array as="points">
              <mxPoint x="170" y="330" />
              <mxPoint x="170" y="340" />
            </Array>
          </mxGeometry>
        </mxCell>
        <mxCell id="fFzKiL66EHyeT-cZ4foM-41" value="" style="edgeStyle=elbowEdgeStyle;elbow=horizontal;endArrow=classic;html=1;dashed=1;fontSize=12;entryX=0;entryY=0.5;entryDx=0;entryDy=0;" parent="fFzKiL66EHyeT-cZ4foM-1" target="fFzKiL66EHyeT-cZ4foM-38" edge="1">
          <mxGeometry width="50" height="50" relative="1" as="geometry">
            <mxPoint x="170" y="370" as="sourcePoint" />
            <mxPoint x="199" y="295" as="targetPoint" />
            <Array as="points">
              <mxPoint x="170" y="250" />
              <mxPoint x="170" y="330" />
              <mxPoint x="170" y="340" />
            </Array>
          </mxGeometry>
        </mxCell>
        <mxCell id="fFzKiL66EHyeT-cZ4foM-42" value="" style="edgeStyle=elbowEdgeStyle;elbow=horizontal;endArrow=classic;html=1;dashed=1;fontSize=12;entryX=0;entryY=0.5;entryDx=0;entryDy=0;" parent="fFzKiL66EHyeT-cZ4foM-1" target="fFzKiL66EHyeT-cZ4foM-32" edge="1">
          <mxGeometry width="50" height="50" relative="1" as="geometry">
            <mxPoint x="170" y="370" as="sourcePoint" />
            <mxPoint x="199" y="255" as="targetPoint" />
            <Array as="points">
              <mxPoint x="170" y="160" />
              <mxPoint x="170" y="200" />
              <mxPoint x="170" y="250" />
              <mxPoint x="170" y="330" />
              <mxPoint x="170" y="340" />
            </Array>
          </mxGeometry>
        </mxCell>
        <mxCell id="fFzKiL66EHyeT-cZ4foM-43" value="" style="edgeStyle=elbowEdgeStyle;elbow=horizontal;endArrow=classic;html=1;dashed=1;fontSize=12;entryX=0;entryY=0.5;entryDx=0;entryDy=0;" parent="fFzKiL66EHyeT-cZ4foM-1" target="fFzKiL66EHyeT-cZ4foM-21" edge="1">
          <mxGeometry width="50" height="50" relative="1" as="geometry">
            <mxPoint x="170" y="370" as="sourcePoint" />
            <mxPoint x="190" y="210" as="targetPoint" />
            <Array as="points">
              <mxPoint x="170" y="250" />
              <mxPoint x="170" y="330" />
              <mxPoint x="170" y="340" />
            </Array>
          </mxGeometry>
        </mxCell>
        <mxCell id="fFzKiL66EHyeT-cZ4foM-44" value="&lt;b&gt;未知死亡：&lt;/b&gt;学好安身立命本领，避免作死，活的更好更久。" style="whiteSpace=wrap;html=1;rounded=1;arcSize=50;align=left;verticalAlign=middle;strokeWidth=1;autosize=1;spacing=4;treeFolding=1;treeMoving=1;newEdgeStyle={&quot;edgeStyle&quot;:&quot;entityRelationEdgeStyle&quot;,&quot;startArrow&quot;:&quot;none&quot;,&quot;endArrow&quot;:&quot;none&quot;,&quot;segment&quot;:10,&quot;curved&quot;:1};fontSize=12;" parent="fFzKiL66EHyeT-cZ4foM-1" vertex="1">
          <mxGeometry x="198.5" y="109" width="350" height="30" as="geometry" />
        </mxCell>
        <mxCell id="fFzKiL66EHyeT-cZ4foM-45" value="" style="edgeStyle=elbowEdgeStyle;elbow=horizontal;endArrow=classic;html=1;dashed=1;fontSize=12;entryX=0;entryY=0.5;entryDx=0;entryDy=0;" parent="fFzKiL66EHyeT-cZ4foM-1" target="fFzKiL66EHyeT-cZ4foM-44" edge="1">
          <mxGeometry width="50" height="50" relative="1" as="geometry">
            <mxPoint x="170" y="370" as="sourcePoint" />
            <mxPoint x="198" y="175" as="targetPoint" />
            <Array as="points">
              <mxPoint x="170" y="250" />
              <mxPoint x="170" y="200" />
              <mxPoint x="170" y="250" />
              <mxPoint x="170" y="330" />
              <mxPoint x="170" y="340" />
            </Array>
          </mxGeometry>
        </mxCell>
      </root>
    </mxGraphModel>
  </diagram>
  <diagram id="crVGpw1orcY3sJ8Mi5Kx" name="第 4 页">
    <mxGraphModel dx="785" dy="517" grid="1" gridSize="10" guides="1" tooltips="1" connect="1" arrows="1" fold="1" page="1" pageScale="1" pageWidth="827" pageHeight="1169" math="0" shadow="0">
      <root>
        <mxCell id="y2ksuw5Uqc5YH2P_OnfJ-0" />
        <mxCell id="y2ksuw5Uqc5YH2P_OnfJ-1" parent="y2ksuw5Uqc5YH2P_OnfJ-0" />
        <mxCell id="y2ksuw5Uqc5YH2P_OnfJ-2" value="穷" style="strokeWidth=2;html=1;shape=mxgraph.flowchart.start_1;whiteSpace=wrap;fontStyle=1;fontSize=30;" vertex="1" parent="y2ksuw5Uqc5YH2P_OnfJ-1">
          <mxGeometry x="18" y="490" width="120" height="60" as="geometry" />
        </mxCell>
        <mxCell id="y2ksuw5Uqc5YH2P_OnfJ-3" value="" style="endArrow=classic;html=1;entryX=0.22;entryY=0.5;entryDx=0;entryDy=0;entryPerimeter=0;" edge="1" parent="y2ksuw5Uqc5YH2P_OnfJ-1" target="y2ksuw5Uqc5YH2P_OnfJ-6">
          <mxGeometry relative="1" as="geometry">
            <mxPoint x="138" y="520" as="sourcePoint" />
            <mxPoint x="668" y="520" as="targetPoint" />
            <Array as="points">
              <mxPoint x="420" y="520" />
            </Array>
          </mxGeometry>
        </mxCell>
        <mxCell id="y2ksuw5Uqc5YH2P_OnfJ-4" value="&lt;span style=&quot;background-color: rgb(248 , 249 , 250)&quot;&gt;赚钱&amp;nbsp; 工作有钱就投资再&lt;/span&gt;&lt;span style=&quot;background-color: rgb(248 , 249 , 250)&quot;&gt;翻倍&lt;/span&gt;&lt;span style=&quot;background-color: rgb(248 , 249 , 250)&quot;&gt;翻倍，不投会贬值&lt;/span&gt;" style="edgeLabel;resizable=0;html=1;align=center;verticalAlign=middle;" connectable="0" vertex="1" parent="y2ksuw5Uqc5YH2P_OnfJ-3">
          <mxGeometry relative="1" as="geometry" />
        </mxCell>
        <mxCell id="y2ksuw5Uqc5YH2P_OnfJ-5" value="够生活" style="edgeLabel;html=1;align=center;verticalAlign=middle;resizable=0;points=[];fontSize=12;" vertex="1" connectable="0" parent="y2ksuw5Uqc5YH2P_OnfJ-3">
          <mxGeometry x="0.8643" relative="1" as="geometry">
            <mxPoint as="offset" />
          </mxGeometry>
        </mxCell>
        <mxCell id="y2ksuw5Uqc5YH2P_OnfJ-6" value="富" style="strokeWidth=2;html=1;shape=mxgraph.flowchart.extract_or_measurement;whiteSpace=wrap;fontStyle=1;fontSize=30;" vertex="1" parent="y2ksuw5Uqc5YH2P_OnfJ-1">
          <mxGeometry x="661" y="490" width="147" height="60" as="geometry" />
        </mxCell>
        <mxCell id="y2ksuw5Uqc5YH2P_OnfJ-7" value="" style="edgeStyle=elbowEdgeStyle;elbow=horizontal;endArrow=classic;html=1;fontSize=30;dashed=1;entryX=0;entryY=0.5;entryDx=0;entryDy=0;entryPerimeter=0;" edge="1" parent="y2ksuw5Uqc5YH2P_OnfJ-1" target="y2ksuw5Uqc5YH2P_OnfJ-9">
          <mxGeometry width="50" height="50" relative="1" as="geometry">
            <mxPoint x="598" y="520" as="sourcePoint" />
            <mxPoint x="648" y="430" as="targetPoint" />
          </mxGeometry>
        </mxCell>
        <mxCell id="y2ksuw5Uqc5YH2P_OnfJ-8" value="" style="edgeStyle=orthogonalEdgeStyle;rounded=0;orthogonalLoop=1;jettySize=auto;html=1;dashed=1;fontSize=30;" edge="1" parent="y2ksuw5Uqc5YH2P_OnfJ-1" source="y2ksuw5Uqc5YH2P_OnfJ-9" target="y2ksuw5Uqc5YH2P_OnfJ-10">
          <mxGeometry relative="1" as="geometry" />
        </mxCell>
        <mxCell id="y2ksuw5Uqc5YH2P_OnfJ-9" value="不差钱" style="strokeWidth=2;html=1;shape=mxgraph.flowchart.delay;whiteSpace=wrap;fontSize=12;" vertex="1" parent="y2ksuw5Uqc5YH2P_OnfJ-1">
          <mxGeometry x="658" y="415" width="60" height="30" as="geometry" />
        </mxCell>
        <mxCell id="y2ksuw5Uqc5YH2P_OnfJ-10" value="有钱" style="shape=cylinder;whiteSpace=wrap;html=1;boundedLbl=1;backgroundOutline=1;fontSize=12;strokeWidth=2;" vertex="1" parent="y2ksuw5Uqc5YH2P_OnfJ-1">
          <mxGeometry x="750" y="390" width="60" height="80" as="geometry" />
        </mxCell>
        <mxCell id="y2ksuw5Uqc5YH2P_OnfJ-11" value="&lt;div&gt;&lt;span&gt;精神富有&lt;/span&gt;&lt;/div&gt;" style="shape=cylinder;whiteSpace=wrap;html=1;boundedLbl=1;backgroundOutline=1;fontSize=12;strokeWidth=2;" vertex="1" parent="y2ksuw5Uqc5YH2P_OnfJ-1">
          <mxGeometry x="748" y="290" width="60" height="80" as="geometry" />
        </mxCell>
        <mxCell id="y2ksuw5Uqc5YH2P_OnfJ-12" value="" style="edgeStyle=elbowEdgeStyle;elbow=horizontal;endArrow=classic;html=1;fontSize=30;dashed=1;entryX=0;entryY=0.5;entryDx=0;entryDy=0;" edge="1" parent="y2ksuw5Uqc5YH2P_OnfJ-1" target="y2ksuw5Uqc5YH2P_OnfJ-11">
          <mxGeometry width="50" height="50" relative="1" as="geometry">
            <mxPoint x="598" y="520" as="sourcePoint" />
            <mxPoint x="658" y="430" as="targetPoint" />
            <Array as="points">
              <mxPoint x="628" y="430" />
              <mxPoint x="638" y="330" />
            </Array>
          </mxGeometry>
        </mxCell>
        <mxCell id="y2ksuw5Uqc5YH2P_OnfJ-35" value="充实满足" style="edgeLabel;html=1;align=center;verticalAlign=middle;resizable=0;points=[];fontSize=12;" vertex="1" connectable="0" parent="y2ksuw5Uqc5YH2P_OnfJ-12">
          <mxGeometry x="0.5771" relative="1" as="geometry">
            <mxPoint as="offset" />
          </mxGeometry>
        </mxCell>
        <mxCell id="y2ksuw5Uqc5YH2P_OnfJ-13" value="文明真理" style="shape=cylinder;whiteSpace=wrap;html=1;boundedLbl=1;backgroundOutline=1;fontSize=12;strokeWidth=2;" vertex="1" parent="y2ksuw5Uqc5YH2P_OnfJ-1">
          <mxGeometry x="748" y="190" width="60" height="80" as="geometry" />
        </mxCell>
        <mxCell id="y2ksuw5Uqc5YH2P_OnfJ-14" value="&lt;div&gt;&lt;font style=&quot;font-size: 12px&quot;&gt;&lt;font color=&quot;#333333&quot; face=&quot;arial, sans-serif&quot;&gt;&lt;b&gt;垄断：&lt;/b&gt;只有我有/只能我卖（平台、国家）&lt;/font&gt;&lt;/font&gt;&lt;/div&gt;" style="whiteSpace=wrap;html=1;rounded=1;arcSize=50;align=left;verticalAlign=middle;strokeWidth=1;autosize=1;spacing=4;treeFolding=1;treeMoving=1;newEdgeStyle={&quot;edgeStyle&quot;:&quot;entityRelationEdgeStyle&quot;,&quot;startArrow&quot;:&quot;none&quot;,&quot;endArrow&quot;:&quot;none&quot;,&quot;segment&quot;:10,&quot;curved&quot;:1};fontSize=12;" vertex="1" collapsed="1" parent="y2ksuw5Uqc5YH2P_OnfJ-1">
          <mxGeometry x="187" y="230" width="260" height="30" as="geometry" />
        </mxCell>
        <mxCell id="y2ksuw5Uqc5YH2P_OnfJ-15" value="&lt;b&gt;资产增值&lt;/b&gt;&lt;b&gt;：&lt;/b&gt;地上的人、树、羊、鱼等万物会长,长大了值钱。钱投资生钱" style="whiteSpace=wrap;html=1;rounded=1;arcSize=50;align=left;verticalAlign=middle;strokeWidth=1;autosize=1;spacing=4;treeFolding=1;treeMoving=1;newEdgeStyle={&quot;edgeStyle&quot;:&quot;entityRelationEdgeStyle&quot;,&quot;startArrow&quot;:&quot;none&quot;,&quot;endArrow&quot;:&quot;none&quot;,&quot;segment&quot;:10,&quot;curved&quot;:1};fontSize=12;" vertex="1" parent="y2ksuw5Uqc5YH2P_OnfJ-1">
          <mxGeometry x="187" y="470" width="420" height="30" as="geometry" />
        </mxCell>
        <mxCell id="y2ksuw5Uqc5YH2P_OnfJ-17" value="" style="edgeStyle=elbowEdgeStyle;elbow=horizontal;endArrow=classic;html=1;fontSize=30;dashed=1;entryX=0;entryY=0.5;entryDx=0;entryDy=0;" edge="1" parent="y2ksuw5Uqc5YH2P_OnfJ-1" target="y2ksuw5Uqc5YH2P_OnfJ-13">
          <mxGeometry width="50" height="50" relative="1" as="geometry">
            <mxPoint x="598" y="520" as="sourcePoint" />
            <mxPoint x="748" y="330" as="targetPoint" />
            <Array as="points">
              <mxPoint x="628" y="370" />
              <mxPoint x="628" y="430" />
              <mxPoint x="638" y="330" />
            </Array>
          </mxGeometry>
        </mxCell>
        <mxCell id="y2ksuw5Uqc5YH2P_OnfJ-36" value="永恒的方程式" style="edgeLabel;html=1;align=center;verticalAlign=middle;resizable=0;points=[];fontSize=12;" vertex="1" connectable="0" parent="y2ksuw5Uqc5YH2P_OnfJ-17">
          <mxGeometry x="0.696" y="2" relative="1" as="geometry">
            <mxPoint as="offset" />
          </mxGeometry>
        </mxCell>
        <mxCell id="y2ksuw5Uqc5YH2P_OnfJ-18" value="&lt;b&gt;服务变现：&lt;/b&gt;工作，出脑/出力/出时间，知识与能力积累，合群" style="whiteSpace=wrap;html=1;rounded=1;arcSize=50;align=left;verticalAlign=middle;strokeWidth=1;autosize=1;spacing=4;treeFolding=1;treeMoving=1;newEdgeStyle={&quot;edgeStyle&quot;:&quot;entityRelationEdgeStyle&quot;,&quot;startArrow&quot;:&quot;none&quot;,&quot;endArrow&quot;:&quot;none&quot;,&quot;segment&quot;:10,&quot;curved&quot;:1};fontSize=12;" vertex="1" parent="y2ksuw5Uqc5YH2P_OnfJ-1">
          <mxGeometry x="187" y="430" width="360" height="30" as="geometry" />
        </mxCell>
        <mxCell id="y2ksuw5Uqc5YH2P_OnfJ-19" value="&lt;b&gt;倒卖赚差价：&lt;/b&gt;代理、市场分销、信息差、供需中介" style="whiteSpace=wrap;html=1;rounded=1;arcSize=50;align=left;verticalAlign=middle;strokeWidth=1;autosize=1;spacing=4;treeFolding=1;treeMoving=1;newEdgeStyle={&quot;edgeStyle&quot;:&quot;entityRelationEdgeStyle&quot;,&quot;startArrow&quot;:&quot;none&quot;,&quot;endArrow&quot;:&quot;none&quot;,&quot;segment&quot;:10,&quot;curved&quot;:1};fontSize=12;" vertex="1" parent="y2ksuw5Uqc5YH2P_OnfJ-1">
          <mxGeometry x="188" y="310" width="300" height="30" as="geometry" />
        </mxCell>
        <mxCell id="y2ksuw5Uqc5YH2P_OnfJ-20" value="" style="edgeStyle=elbowEdgeStyle;elbow=horizontal;endArrow=classic;html=1;dashed=1;fontSize=12;entryX=0;entryY=0.5;entryDx=0;entryDy=0;" edge="1" parent="y2ksuw5Uqc5YH2P_OnfJ-1" target="y2ksuw5Uqc5YH2P_OnfJ-15">
          <mxGeometry width="50" height="50" relative="1" as="geometry">
            <mxPoint x="158" y="520" as="sourcePoint" />
            <mxPoint x="208" y="480" as="targetPoint" />
            <Array as="points">
              <mxPoint x="158" y="490" />
            </Array>
          </mxGeometry>
        </mxCell>
        <mxCell id="y2ksuw5Uqc5YH2P_OnfJ-21" value="" style="edgeStyle=elbowEdgeStyle;elbow=horizontal;endArrow=classic;html=1;dashed=1;fontSize=12;entryX=0;entryY=0.5;entryDx=0;entryDy=0;" edge="1" parent="y2ksuw5Uqc5YH2P_OnfJ-1" target="y2ksuw5Uqc5YH2P_OnfJ-18">
          <mxGeometry width="50" height="50" relative="1" as="geometry">
            <mxPoint x="158" y="520" as="sourcePoint" />
            <mxPoint x="187" y="485" as="targetPoint" />
            <Array as="points">
              <mxPoint x="158" y="480" />
              <mxPoint x="158" y="490" />
            </Array>
          </mxGeometry>
        </mxCell>
        <mxCell id="y2ksuw5Uqc5YH2P_OnfJ-22" value="" style="edgeStyle=elbowEdgeStyle;elbow=horizontal;endArrow=classic;html=1;dashed=1;fontSize=12;entryX=0;entryY=0.5;entryDx=0;entryDy=0;" edge="1" parent="y2ksuw5Uqc5YH2P_OnfJ-1" target="y2ksuw5Uqc5YH2P_OnfJ-19">
          <mxGeometry width="50" height="50" relative="1" as="geometry">
            <mxPoint x="158" y="520" as="sourcePoint" />
            <mxPoint x="187" y="445" as="targetPoint" />
            <Array as="points">
              <mxPoint x="158" y="400" />
              <mxPoint x="158" y="480" />
              <mxPoint x="158" y="490" />
            </Array>
          </mxGeometry>
        </mxCell>
        <mxCell id="y2ksuw5Uqc5YH2P_OnfJ-24" value="" style="edgeStyle=elbowEdgeStyle;elbow=horizontal;endArrow=classic;html=1;dashed=1;fontSize=12;entryX=0;entryY=0.5;entryDx=0;entryDy=0;" edge="1" parent="y2ksuw5Uqc5YH2P_OnfJ-1" target="y2ksuw5Uqc5YH2P_OnfJ-14">
          <mxGeometry width="50" height="50" relative="1" as="geometry">
            <mxPoint x="158" y="520" as="sourcePoint" />
            <mxPoint x="178" y="360" as="targetPoint" />
            <Array as="points">
              <mxPoint x="158" y="400" />
              <mxPoint x="158" y="480" />
              <mxPoint x="158" y="490" />
            </Array>
          </mxGeometry>
        </mxCell>
        <mxCell id="y2ksuw5Uqc5YH2P_OnfJ-25" value="&lt;b&gt;挑战精神：&lt;/b&gt;影响力、带头精神、坚强的心,学习不停,狂学到死,比暴富更澎湃" style="whiteSpace=wrap;html=1;rounded=1;arcSize=50;align=left;verticalAlign=middle;strokeWidth=1;autosize=1;spacing=4;treeFolding=1;treeMoving=1;newEdgeStyle={&quot;edgeStyle&quot;:&quot;entityRelationEdgeStyle&quot;,&quot;startArrow&quot;:&quot;none&quot;,&quot;endArrow&quot;:&quot;none&quot;,&quot;segment&quot;:10,&quot;curved&quot;:1};fontSize=12;" vertex="1" parent="y2ksuw5Uqc5YH2P_OnfJ-1">
          <mxGeometry x="188" y="390" width="430" height="30" as="geometry" />
        </mxCell>
        <mxCell id="y2ksuw5Uqc5YH2P_OnfJ-26" value="" style="edgeStyle=elbowEdgeStyle;elbow=horizontal;endArrow=classic;html=1;dashed=1;fontSize=12;entryX=0;entryY=0.5;entryDx=0;entryDy=0;" edge="1" parent="y2ksuw5Uqc5YH2P_OnfJ-1" target="y2ksuw5Uqc5YH2P_OnfJ-25">
          <mxGeometry width="50" height="50" relative="1" as="geometry">
            <mxPoint x="158" y="520" as="sourcePoint" />
            <mxPoint x="186" y="325" as="targetPoint" />
            <Array as="points">
              <mxPoint x="158" y="400" />
              <mxPoint x="158" y="350" />
              <mxPoint x="158" y="400" />
              <mxPoint x="158" y="480" />
              <mxPoint x="158" y="490" />
            </Array>
          </mxGeometry>
        </mxCell>
        <mxCell id="y2ksuw5Uqc5YH2P_OnfJ-29" value="&lt;b&gt;他人剩余价值：&lt;/b&gt;人是会赚钱的，人优秀管理好也赚的多" style="whiteSpace=wrap;html=1;rounded=1;arcSize=50;align=left;verticalAlign=middle;strokeWidth=1;autosize=1;spacing=4;treeFolding=1;treeMoving=1;newEdgeStyle={&quot;edgeStyle&quot;:&quot;entityRelationEdgeStyle&quot;,&quot;startArrow&quot;:&quot;none&quot;,&quot;endArrow&quot;:&quot;none&quot;,&quot;segment&quot;:10,&quot;curved&quot;:1};fontSize=12;" vertex="1" parent="y2ksuw5Uqc5YH2P_OnfJ-1">
          <mxGeometry x="187" y="270" width="330" height="30" as="geometry" />
        </mxCell>
        <mxCell id="y2ksuw5Uqc5YH2P_OnfJ-30" value="" style="edgeStyle=elbowEdgeStyle;elbow=horizontal;endArrow=classic;html=1;dashed=1;fontSize=12;entryX=0;entryY=0.5;entryDx=0;entryDy=0;" edge="1" parent="y2ksuw5Uqc5YH2P_OnfJ-1" target="y2ksuw5Uqc5YH2P_OnfJ-29">
          <mxGeometry width="50" height="50" relative="1" as="geometry">
            <mxPoint x="158" y="490" as="sourcePoint" />
            <mxPoint x="187" y="190" as="targetPoint" />
            <Array as="points">
              <mxPoint x="158" y="190" />
              <mxPoint x="158" y="370" />
              <mxPoint x="158" y="320" />
              <mxPoint x="158" y="370" />
              <mxPoint x="158" y="450" />
              <mxPoint x="158" y="460" />
            </Array>
          </mxGeometry>
        </mxCell>
        <mxCell id="y2ksuw5Uqc5YH2P_OnfJ-31" value="&lt;b&gt;暴富：&lt;/b&gt;倍数放大/高附加值/可复制/可量产/快速传播/大额交易/垄断(上市/虚拟商品/品牌/智慧产权/书等）" style="whiteSpace=wrap;html=1;rounded=1;arcSize=50;align=left;verticalAlign=middle;strokeWidth=1;autosize=1;spacing=4;treeFolding=1;treeMoving=1;newEdgeStyle={&quot;edgeStyle&quot;:&quot;entityRelationEdgeStyle&quot;,&quot;startArrow&quot;:&quot;none&quot;,&quot;endArrow&quot;:&quot;none&quot;,&quot;segment&quot;:10,&quot;curved&quot;:1};fontSize=12;" vertex="1" parent="y2ksuw5Uqc5YH2P_OnfJ-1">
          <mxGeometry x="187" y="150" width="554" height="30" as="geometry" />
        </mxCell>
        <mxCell id="y2ksuw5Uqc5YH2P_OnfJ-32" value="" style="edgeStyle=elbowEdgeStyle;elbow=horizontal;endArrow=classic;html=1;dashed=1;fontSize=12;entryX=0;entryY=0.5;entryDx=0;entryDy=0;" edge="1" parent="y2ksuw5Uqc5YH2P_OnfJ-1" target="y2ksuw5Uqc5YH2P_OnfJ-31">
          <mxGeometry width="50" height="50" relative="1" as="geometry">
            <mxPoint x="158" y="490" as="sourcePoint" />
            <mxPoint x="187" y="190" as="targetPoint" />
            <Array as="points">
              <mxPoint x="158" y="190" />
              <mxPoint x="158" y="370" />
              <mxPoint x="158" y="320" />
              <mxPoint x="158" y="370" />
              <mxPoint x="158" y="450" />
              <mxPoint x="158" y="460" />
            </Array>
          </mxGeometry>
        </mxCell>
        <mxCell id="y2ksuw5Uqc5YH2P_OnfJ-33" value="&lt;b&gt;产品创新：&lt;/b&gt;产品差异化或更便宜，吸收别人牛的地方用到自己产品上。" style="whiteSpace=wrap;html=1;rounded=1;arcSize=50;align=left;verticalAlign=middle;strokeWidth=1;autosize=1;spacing=4;treeFolding=1;treeMoving=1;newEdgeStyle={&quot;edgeStyle&quot;:&quot;entityRelationEdgeStyle&quot;,&quot;startArrow&quot;:&quot;none&quot;,&quot;endArrow&quot;:&quot;none&quot;,&quot;segment&quot;:10,&quot;curved&quot;:1};fontSize=12;" vertex="1" parent="y2ksuw5Uqc5YH2P_OnfJ-1">
          <mxGeometry x="188" y="350" width="410" height="30" as="geometry" />
        </mxCell>
        <mxCell id="y2ksuw5Uqc5YH2P_OnfJ-34" value="" style="edgeStyle=elbowEdgeStyle;elbow=horizontal;endArrow=classic;html=1;dashed=1;fontSize=12;entryX=0;entryY=0.5;entryDx=0;entryDy=0;" edge="1" parent="y2ksuw5Uqc5YH2P_OnfJ-1" target="y2ksuw5Uqc5YH2P_OnfJ-33">
          <mxGeometry width="50" height="50" relative="1" as="geometry">
            <mxPoint x="158" y="489.9999999999999" as="sourcePoint" />
            <mxPoint x="186.0000000000001" y="205" as="targetPoint" />
            <Array as="points">
              <mxPoint x="158" y="330" />
              <mxPoint x="158" y="190" />
              <mxPoint x="158" y="370" />
              <mxPoint x="158" y="320" />
              <mxPoint x="158" y="370" />
              <mxPoint x="158" y="450" />
              <mxPoint x="158" y="460" />
            </Array>
          </mxGeometry>
        </mxCell>
      </root>
    </mxGraphModel>
  </diagram>
</mxfile>
